# xmcd CD database file
#
# Track frame offsets:
#	150
#	15450
#	27125
#	45465
#	62613
#	78385
#	97101
#	112781
#	128008
#	141109
#	155929
#	173246
#	189439
#	199275
#	214636
#	241806
#
# Disc length: 3514 seconds
#
# Revision: 0
# Processed by: cddbd v1.5.2PL0 Copyright (c) Steve Scherf et al.
# Submitted via: CDex 1.70beta2
#
DISCID=d00db810
DTITLE=Various Artist - Christmas in Regensburg
DYEAR=2008
DGENRE=Jazz
TTITLE0=Jingle Bells
TTITLE1=Santa Claus is coming to town
TTITLE2=I'll be home fpr christmas
TTITLE3=Winter Wonderland
TTITLE4=Christmas Island
TTITLE5=White Christmas
TTITLE6=Rudolph the red nosed reindeer
TTITLE7=Let it snow
TTITLE8=It's beginning to look like christmas
TTITLE9=Rocking around the christmas tree
TTITLE10=Baby it's cold outside
TTITLE11=Blue Christmas
TTITLE12=Here comes Santa Claus
TTITLE13=Mary's Boychild
TTITLE14=Have yourself a merry little christmas
TTITLE15=Christmas is
EXTD=YEAR: 2008
EXTT0=
EXTT1=
EXTT2=
EXTT3=
EXTT4=
EXTT5=
EXTT6=
EXTT7=
EXTT8=
EXTT9=
EXTT10=
EXTT11=
EXTT12=
EXTT13=
EXTT14=
EXTT15=
PLAYORDER=
